<?xml version="1.0" encoding="utf-8"?>
<!-- Generator: Adobe Illustrator 16.0.0, SVG Export Plug-In . SVG Version: 6.00 Build 0)  -->
<!DOCTYPE svg PUBLIC "-//W3C//DTD SVG 1.1//EN" "http://www.w3.org/Graphics/SVG/1.1/DTD/svg11.dtd">
<svg version="1.1" id="Layer_1" xmlns="http://www.w3.org/2000/svg" xmlns:xlink="http://www.w3.org/1999/xlink" x="0px" y="0px"
	 width="831.083px" height="768.077px" viewBox="0 0 831.083 768.077" enable-background="new 0 0 831.083 768.077"
	 xml:space="preserve">
<path fill-rule="evenodd" clip-rule="evenodd" fill="#FCFEFF" d="M-617.729-379.795c-0.333,0.333-0.667,0.667-1,1
	C-618.923-379.656-618.59-379.989-617.729-379.795z"/>
<path fill-rule="evenodd" clip-rule="evenodd" fill="#FCFEFF" d="M-618.729,1220.206c0.333,0.334,0.667,0.668,1,1
	C-618.59,1221.401-618.923,1221.067-618.729,1220.206z"/>
<path fill-rule="evenodd" clip-rule="evenodd" fill="#FCFEFF" d="M1381.274,1221.206c0.334-0.332,0.668-0.666,1-1
	C1382.469,1221.067,1382.135,1221.401,1381.274,1221.206z"/>
<path fill-rule="evenodd" clip-rule="evenodd" fill="#222021" d="M169.703,283.668c1.187-3.998,2.269-7.974,3.545-11.886
	c5.375-16.474,14.041-31.083,25.178-44.292c17.739-21.039,40.544-33.9,66.746-41.143c12.48-3.449,25.114-6.233,38.18-6.28
	c2.78-0.011,4.956-1.166,6.952-3.235c20.065-20.791,44.458-33.916,72.565-40.074c8.076-1.77,16.362-2.721,24.603-3.56
	c6.596-0.672,13.288-1.08,19.901-0.781c28.842,1.306,55.223,10.322,79.258,26.234c3.596,2.381,7.211,4.875,10.279,7.867
	c2.765,2.697,5.588,3.001,9.33,2.298c0.463-7.382,0.987-14.642,1.348-21.909c0.268-5.37,1.324-10.497,3.681-15.36
	c0.552-1.14,1.138-2.591,0.899-3.729c-1.079-5.177,0.239-10.244,0.382-15.356c0.106-3.81,0.594-7.617,0.558-11.422
	c-0.068-7.218,1.98-13.728,5.412-18.824c0-5.353-0.113-9.819,0.031-14.278c0.155-4.812,0.606-9.611,0.828-14.421
	c0.216-4.67,0.772-9.265,2.566-13.621c5.269-12.792,15.318-18.946,28.673-19.464c13.29-0.515,26.523,0.84,39.73,2.578
	c48.502,6.385,91.151,26.215,129.179,56.374c25.971,20.598,46.724,45.757,62.738,74.799c8.825,16.004,15.859,32.741,21.697,50.08
	c5.644,16.759-3.43,32.69-17.119,38.174c-7.22,2.893-14.032,6.865-21.355,9.412c-5.133,1.785-9.384,4.254-13.262,7.969
	c-2.214,2.121-5.145,3.612-7.954,4.969c-6.716,3.244-13.399,6.654-20.384,9.212c-6.08,2.226-12.206,4.004-16.492,9.273
	c-0.1,0.123-0.271,0.194-0.419,0.269c-10.483,5.294-20.95,10.711-32.187,14.194c-4.731,1.467-9.885,0.997-15.107-0.404
	c-0.128,0.731-0.399,1.471-0.361,2.192c0.788,14.867-0.729,29.546-3.474,44.138c-0.335,1.777-0.432,3.623-0.437,5.439
	c-0.066,27.494,0.017,54.988-0.18,82.479c-0.136,18.904-2.952,37.342-11.022,54.68c-0.838,1.801-1.815,3.537-2.742,5.295
	c-2.773,5.264-5.319,10.668-8.408,15.74c-2.316,3.805-4.963,7.557-8.108,10.684c-11.963,11.891-25.882,20.691-42.219,25.381
	c-1.269,0.363-2.558,0.676-3.855,0.912c-4.063,0.742-8.018,1.711-11.92,3.203c-6.254,2.391-12.758,3.561-19.513,1.912
	c-1.739-0.424-3.632-0.402-5.443-0.322c-21.102,0.939-40.855-3.518-58.987-14.576c-0.276-0.168-0.614-0.236-1.052-0.398
	c-39.054,23.668-78.504,23.23-118.917,1.568c-33.919,19.908-69.651,20.797-106.564,5.803c-6.382,3.418-13.146,6.49-20.487,8.154
	c-9.86,2.236-19.775,2.324-29.717,0.9c-5.919-0.85-11.702-1.785-17.768-0.439c-8.663,1.92-17.56,1.346-26.368,1.186
	c-6.309-0.115-12.617-0.537-18.909-1.035c-2.279-0.182-4.565-0.814-6.752-1.531c-6.45-2.119-12.872-4.328-19.27-6.6
	c-11.676-4.145-22.244-10.236-31.718-18.232c-4.703-3.971-9.448-7.891-14.174-11.834c-7.54-6.293-12.352-14.725-17.79-22.668
	c-11.876-17.342-18.116-36.795-20.937-57.383c-1.582-11.545-1.068-23.152,0.411-34.768c1.755-13.775,5.476-26.895,11.288-39.461
	c4.278-9.248,9.83-17.705,16.162-25.658c8.75-10.993,18.651-20.791,30.215-28.844c5.779-4.025,11.962-7.07,19.007-8.179
	c1.28-0.201,2.594-0.674,3.716-1.325c7.31-4.239,15.468-5.78,23.562-7.522C161.15,285.314,165.374,284.53,169.703,283.668z
	 M78.522,415.409c0.633,6.936,0.646,13.998,2.026,20.783c3.022,14.859,8.609,28.686,17.355,41.32
	c5.745,8.299,11.983,15.889,20.09,21.9c3.335,2.475,6.88,4.717,9.953,7.482c5.064,4.559,11.032,7.363,17.27,9.701
	c6.798,2.549,13.666,4.908,20.526,7.289c0.739,0.256,1.626,0.115,2.444,0.117c10.996,0.027,21.993,0.063,32.989,0.045
	c1.11-0.002,2.217-0.369,3.332-0.502c3.884-0.461,7.823-1.473,11.636-1.121c2.389,0.219,4.802,0.742,7.266,0.703
	c0.81-0.014,1.624,0.172,2.433,0.289c4.013,0.586,8.009,1.365,12.042,1.686c1.878,0.15,3.819-0.818,5.744-0.877
	c8.748-0.258,16.201-3.795,22.986-8.961c2.7-2.057,5.318-3.529,8.973-3.23c1.939,0.158,3.288,0.68,4.912,1.654
	c6.57,3.949,13.911,6.154,21.203,8.27c4.786,1.391,9.79,2.277,14.756,2.721c4.004,0.355,8.107-0.584,12.148-0.438
	c11.658,0.418,22.467-2.738,32.714-7.818c6.004-2.977,11.611-6.758,17.362-10.236c3.454-2.088,6.755-3,10.23,0.066
	c2.045,1.805,4.422,3.229,6.566,4.928c5.725,4.539,12.293,7.391,19.138,9.699c6.271,2.115,12.869,2.703,19.306,4.049
	c5.199-1.643,10.53-0.484,15.794-0.705c8.118-0.34,15.855-2.156,23.223-5.498c8.406-3.814,16.351-8.367,23.132-14.771
	c1.28-1.207,2.924-1.887,4.933-1.861c1.999,0.025,3.316,0.732,4.815,1.977c2.712,2.246,5.767,4.078,8.659,6.109
	c9.403,6.607,19.965,10.539,31.232,11.832c8.501,0.975,17.171,0.215,25.699-0.91c5.805-0.766,11.535-2.521,17.341-2.748
	c6.354-0.248,11.832-2.453,17.313-5.135c14.442-7.064,25.051-17.676,30.824-32.902c4.659-12.287,7.608-24.977,9.343-37.969
	c0.458-3.424,0.461-6.922,1.102-10.305c1.167-6.17,1.878-12.4,1.845-18.633c-0.095-17.469-0.656-34.932-0.764-52.4
	c-0.049-7.963,0.252-15.955,0.93-23.891c0.499-5.84,2.533-11.588,2.706-17.412c0.332-11.208,0.698-22.413-1.637-33.61
	c-2.637-12.642-7.364-24.215-13.865-35.311c-11.156-19.041-26.795-33.203-46.086-43.468c-21.877-11.64-45.318-14.144-69.526-10.855
	c-5.886,0.799-10.76-0.479-15.183-4.165c-2.811-2.343-5.509-4.825-8.384-7.084c-9.053-7.109-19.065-12.582-29.712-16.877
	c-14.1-5.687-28.78-8.719-43.983-9c-9.807-0.181-19.499,0.965-29.169,2.644c-17.893,3.106-34.331,9.573-49.195,20.081
	c-8.616,6.091-15.956,13.559-23.276,21.044c-2.649,2.71-5.576,3.996-9.291,3.847c-13.554-0.545-26.735,1.666-39.772,5.206
	c-23.594,6.407-43.618,18.181-58.319,38.152c-8.027,10.904-14.312,22.638-17.551,35.893c-1.457,5.962-2.653,11.939-2.923,18.093
	c-0.163,3.732-1.356,5.062-4.716,4.941c-8.871-0.315-17.514,1.336-26.093,3.126c-6.761,1.411-13.571,2.813-19.729,6.396
	c-2.628,1.529-5.568,2.576-8.872,2.84c-2.643,0.212-5.381,1.662-7.681,3.168c-3.461,2.267-6.643,4.979-9.825,7.644
	c-11.228,9.398-20.157,20.709-26.947,33.621C82.213,381.435,78.61,397.964,78.522,415.409z M798.544,216.53
	c-0.244-1.823-0.302-3.465-0.709-5.015c-0.585-2.229-1.389-4.403-2.159-6.58c-5.979-16.89-13.755-32.906-23.173-48.153
	c-13.583-21.987-30.53-40.995-50.654-57.134c-14.801-11.87-30.941-21.642-48.063-29.85c-16.922-8.114-34.442-14.354-52.938-17.657
	c-7.159-1.278-14.38-2.228-21.59-3.199c-9.217-1.241-18.488-1.769-27.787-1.604c-3.476,0.062-4.847,1.384-5.07,4.777
	c-0.459,6.957-0.853,13.92-1.143,20.886c-0.157,3.757,0.422,4.282,4.255,4.438c6.296,0.256,12.608,0.252,18.887,0.718
	c6.935,0.516,13.915,1.017,20.74,2.267c15.636,2.863,30.691,7.695,45.255,14.145c30.064,13.313,56.159,31.893,77.207,57.33
	c12.886,15.572,23.146,32.71,30.776,51.405c2.805,6.873,5.265,13.887,7.849,20.848c1.261,3.396,2.26,3.931,5.466,2.716
	c0.618-0.234,1.199-0.566,1.801-0.846c4.048-1.881,8.085-3.787,12.149-5.63C792.482,219.106,795.359,217.908,798.544,216.53z
	 M756.135,238.259c-4.817-15.203-11.979-30.976-20.87-45.878c-11.161-18.708-24.965-35.214-41.713-49.159
	c-14.086-11.729-29.564-21.314-46.193-29.03c-12.478-5.79-25.336-10.409-38.854-13.2c-8.437-1.741-16.841-3.521-25.472-3.938
	c-6.298-0.303-12.591-0.741-18.893-0.889c-3.012-0.071-3.775,0.872-3.95,3.884c-0.415,7.124-0.826,14.25-1.145,21.38
	c-0.18,3.998,0.489,4.716,4.451,4.754c11.962,0.114,23.752,1.573,35.486,3.889c18.167,3.585,35.213,10.017,51.193,19.326
	c20.282,11.815,36.774,27.83,50.886,46.383c9.671,12.714,17.687,26.402,22.894,41.603c1.069,3.122,1.956,6.314,3.177,9.375
	c1.438,3.609,2.636,4.021,6.042,2.509c6.193-2.749,12.396-5.479,18.549-8.314C753.316,240.218,754.742,239.121,756.135,238.259z
	 M553.061,172.718c1.122,0.364,1.579,0.643,2.037,0.643c8.812,0.013,17.505,1.153,26.122,2.86
	c13.535,2.683,26.421,7.227,38.484,13.964c15.679,8.755,29.318,20.015,40.81,33.813c7.236,8.69,13.566,17.997,17.968,28.483
	c2.172,5.175,4.135,10.438,6.242,15.641c1.334,3.298,2.938,3.966,6.229,2.703c0.615-0.236,1.188-0.581,1.789-0.855
	c5.11-2.336,10.196-4.725,15.34-6.983c5.767-2.533,5.936-2.727,3.686-8.821c-10.925-29.592-28.051-54.727-53.145-74.198
	c-29.267-22.709-62.232-35.301-99.351-36.694c-1.273-0.048-2.55-0.006-4.309-0.006C554.314,153.314,553.696,162.886,553.061,172.718
	z"/>
<path fill-rule="evenodd" clip-rule="evenodd" fill="#222021" d="M253.491,604.425c3.914-2.305,7.527-3.24,11.312-3.289
	c3.365-0.043,6.731,0.188,10.098,0.209c6.008,0.037,12.018,0.012,18.049,0.012c0.868-4.088,1.589-8.393,2.722-12.588
	c1.36-5.039,3.799-9.529,8.029-12.824c3.753-2.924,8.206-3.633,12.748-3.609c9.275,0.047,18.549,0.303,27.825,0.471
	c1.254,0.023,2.521,0.162,3.763,0.043c2.858-0.271,5.179,0.6,6.9,3.016c1.459-0.779,2.772-1.783,4.249-2.18
	c1.411-0.379,2.991-0.152,4.497-0.146c4.269,0.018,8.54,0.158,12.806,0.055c3.15-0.074,5.188,1.344,6.63,4
	c1.405,2.588,2.105,5.311,2.077,8.264c-0.05,5.387-0.014,10.771-0.014,16.191c1.456,0.527,2.712,1.02,3.995,1.426
	c0.436,0.139,1.054,0.246,1.396,0.041c2.435-1.445,5.106-1.102,7.71-1.053c5.25,0.098,10.5,0.479,15.748,0.443
	c5.751-0.039,11.514-0.242,17.245-0.701c4.049-0.324,6.789,1.121,8.532,4.699c0.098,0.201,0.375,0.313,0.806,0.652
	c3.079-2.379,6.497-4.408,10.504-4.965c3.211-0.447,6.456-0.748,9.694-0.873c4.765-0.182,9.539-0.102,14.306-0.223
	c5.502-0.139,10.397,1.32,14.616,5.453c0.517-0.775,0.984-1.432,1.402-2.117c1.546-2.531,3.646-3.992,6.756-3.984
	c4.391,0.012,8.784-0.125,13.175-0.252c7.139-0.207,14.277-0.424,21.415-0.697c5.501-0.209,10.42,1.148,14.417,5.137
	c0.765-1.225,1.42-2.438,2.235-3.533c1.177-1.582,2.704-2.445,4.804-2.469c6.5-0.076,13.003-0.219,19.498-0.482
	c3.741-0.154,7.467-0.617,11.204-0.898c4.71-0.355,9.29-0.104,12.88,3.311c1.94-1.24,3.531-2.471,5.298-3.346
	c4.463-2.211,16.85-2.137,21.334-0.012c2.918,1.383,5.117,3.563,6.824,6.258c0.91,1.438,1.751,2.918,2.801,4.676
	c0.521-0.869,0.918-1.469,1.254-2.1c4.376-8.225,11.313-12.428,20.512-13.068c4.996-0.348,9.991-0.703,14.99-0.984
	c5.416-0.305,10.827-0.484,15.366,3.738c0.712-1.008,1.215-1.682,1.678-2.383c1.257-1.9,2.895-2.861,5.29-2.973
	c4.617-0.219,9.22-0.754,13.829-1.156c3.277-0.287,6.533-0.002,9.863-0.668c4.505-0.9,9.224-0.674,13.822-1.189
	c3.496-0.393,5.425,1.354,6.75,4.182c1.565,3.342,2.175,6.949,2.195,10.58c0.084,15.07,0.081,30.143,0.002,45.213
	c-0.019,3.504-0.608,6.971-2.008,10.248c-1.452,3.396-3.551,5.523-7.702,5.207c-4.106-0.313-8.253-0.068-12.823-0.068
	c-0.013,1.293-0.039,2.631-0.039,3.969c-0.002,21.854-0.012,43.705,0.008,65.559c0.003,3.803-0.548,7.482-2.159,10.947
	c-1.662,3.574-2.825,4.406-6.698,4.002c-5.72-0.598-11.407-1.498-17.114-2.229c-2.342-0.301-4.698-0.479-7.044-0.748
	c-10.687-1.227-21.365-2.541-32.063-3.67c-5.465-0.576-10.149-2.535-13.883-6.625c-0.138-0.152-0.412-0.184-0.622-0.27
	c-4.738,5.994-3.525,4.822-10.624,4.422c-3.989-0.225-7.949-1.025-11.938-1.199c-3.074-0.133-4.811-1.77-6.204-4.15
	c-0.377-0.645-0.688-1.33-1.143-2.221c-0.54,0.826-0.975,1.506-1.424,2.178c-1.718,2.57-4.039,3.42-7.133,2.98
	c-4.205-0.598-8.456-1.143-12.691-1.176c-3.868-0.031-6.47-1.49-8.125-4.887c-0.209-0.43-0.543-0.801-0.831-1.215
	c-0.589,0.873-1.094,1.742-1.717,2.518c-1.409,1.758-3.101,2.555-5.517,2.277c-4.597-0.527-9.232-0.729-13.854-1.035
	c-10.961-0.732-21.923-1.461-32.886-2.16c-4.372-0.277-8.748-0.543-13.125-0.686c-5.623-0.184-10.482-2.031-14.325-6.416
	c-0.419,0.59-0.763,0.965-0.983,1.4c-1.513,3-3.8,4.295-7.275,4.139c-10.641-0.482-21.293-0.709-31.938-1.098
	c-2.245-0.08-4.507-0.273-6.714-0.668c-6.215-1.115-10.659-4.729-13.632-10.191c-2.54-4.666-3.758-9.752-4.574-14.967
	c-1.093-6.979-0.859-14.006-0.88-21.025c-0.021-6.762-0.004-13.525-0.004-20.523c-3.734-0.469-7.279-0.197-11.118-0.201
	c0,1.541,0,2.771,0,4c0,16.703-0.02,33.408,0.017,50.111c0.007,3.33-0.501,6.461-2.384,9.291c-1.351,2.031-3.085,3.102-5.627,3.078
	c-11.675-0.107-23.353-0.051-35.028-0.188c-6.938-0.082-12.661-2.674-16.456-8.775c-0.245-0.393-0.598-0.721-1.05-1.256
	c-0.54,0.814-0.926,1.424-1.338,2.016c-3.774,5.426-8.882,8.148-15.577,8.215c-11.281,0.111-22.563,0.385-33.838,0.738
	c-11.258,0.354-22.509,0.904-33.765,1.336c-3.01,0.115-6.026,0.057-9.038,0.16c-4.526,0.154-8.666-0.875-12.332-3.92
	c-0.539,0.777-1.027,1.48-1.514,2.184c-1.302,1.881-3.102,2.873-5.378,2.992c-5.252,0.277-10.522,0.924-15.752,0.684
	c-3.383-0.156-6.56,0.652-9.849,0.783c-3.373,0.133-6.739,0.436-10.108,0.666c-0.75,0.051-1.505,0.07-2.252,0.162
	c-3.088,0.383-5.374-0.771-6.861-3.51c-0.277-0.508-0.592-0.994-0.94-1.576c-0.657,1.027-1.238,1.988-1.873,2.914
	c-1.355,1.977-3.116,3.004-5.642,3.119c-4.363,0.197-8.721,0.656-13.063,1.168c-5.28,0.621-6.586,0.035-9.525-4.922
	c-0.515,0.898-0.925,1.754-1.46,2.521c-1.401,2.012-2.999,3.459-5.775,3.586c-4.992,0.225-9.978,0.77-14.943,1.369
	c-3.303,0.4-5.62-0.672-7.036-3.693c-0.152-0.322-0.477-0.564-0.947-1.104c-3.241,4.014-7.602,5.949-12.513,6.754
	c-1.85,0.301-3.729,0.43-5.598,0.617c-6.349,0.643-12.692,1.355-19.051,1.885c-4.665,0.391-9.323,0.418-13.025-3.352
	c-0.717,1.205-1.17,2.092-1.742,2.896c-1.056,1.484-2.453,2.496-4.318,2.715c-6.585,0.773-13.174,1.514-19.755,2.316
	c-6.334,0.771-12.667,1.555-18.988,2.43c-8.441,1.168-13.653-1.381-17.629-8.863c-2.306-4.34-3.625-9.033-4.459-13.846
	c-1.738-10.021-2.205-20.148-2.215-30.295c-0.03-30.268-0.03-60.535,0-90.801c0.009-10.15,0.425-20.287,2.213-30.301
	c1.103-6.174,2.822-12.154,6.688-17.307c2.75-3.664,6.277-5.781,10.904-5.527c4.748,0.26,9.493,0.674,14.217,1.209
	c6.958,0.787,13.896,1.756,20.847,2.619c2.606,0.324,5.222,0.584,7.837,0.842c2.023,0.199,3.476,1.275,4.622,2.871
	c2.266,3.152,3.332,6.727,3.39,10.551c0.111,7.281,0.08,14.564,0.106,21.85c0.004,1.244,0.001,2.486,0.001,4.191
	c5.671-2.963,11.317-2.697,17.089-2.021c4.841,0.564,9.737,0.729,14.616,0.875c6.385,0.193,12.055,2,16.559,6.717
	c0.255-0.135,0.545-0.189,0.609-0.338c1.63-3.869,4.443-5.348,8.663-4.9c4.723,0.5,9.547,0.203,14.227,0.914
	c4.584,0.697,9.143,0.371,13.706,0.611c7.766,0.41,9.715,1.615,13.746,4.67c0.435-0.271,0.957-0.555,1.435-0.9
	c2.743-1.971,5.782-2.928,9.167-2.705c3.244,0.213,6.513,0.258,9.724,0.709c3.906,0.551,7.328,2.373,10.735,5.344
	c0-1.568,0-2.637,0-3.705c0-6.529,0.025-13.061-0.012-19.592c-0.015-2.68,0.47-5.254,1.599-7.654
	c1.366-2.91,3.433-5.094,7.704-4.654c4.728,0.488,9.49,0.723,14.242,0.844c3.441,0.088,5.641,1.744,7.089,4.67
	c1.121,2.266,1.821,4.641,1.822,7.203c0,6.027,0.033,12.055,0.051,18.084C253.495,601.167,253.491,602.413,253.491,604.425z
	 M554.173,612.679c-0.698,12.5-0.384,103.811,0.354,106.895c5.544,0.336,11.1,0.674,16.949,1.029c0-1.645,0-2.873,0-4.104
	c0-14.814,0-29.629,0-44.443c0-6.027,0.003-12.053-0.001-18.08c-0.002-2.287,0.222-4.496,1.897-6.223
	c2.331,0,4.579-0.127,6.804,0.039c1.89,0.139,3.292,0.992,3.375,3.256c0.079,2.109,0.562,4.211,0.566,6.316
	c0.046,19.961,0.027,39.924,0.027,59.887c0,1.338,0,2.676,0,4.143c5.993,0.453,11.543,0.875,17.403,1.32c0-1.998,0-3.729,0-5.457
	c0-20.715-0.015-41.43,0.026-62.145c0.003-1.855,0.295-3.721,0.585-5.561c0.229-1.455,1.198-2.037,2.698-1.99
	c2.496,0.076,4.997,0.021,7.62,0.021c0.405,0.857,0.979,1.598,1.095,2.404c0.337,2.342,0.681,4.709,0.687,7.066
	c0.052,20.84,0.03,41.682,0.03,62.521c0,1.229,0,2.457,0,3.607c6.05,1.217,14.712,1.863,17.322,1.289
	c0-7.863,0.075-15.758-0.014-23.654c-0.261-23.197,0.712-46.41-0.664-69.596c-0.273-4.619-1.013-9.16-2.78-13.477
	c-1.96-4.789-5.541-7.248-10.709-7.332c-2.258-0.037-4.52,0.086-6.776,0.035c-7.586-0.174-9.345,3.393-11.212,7.912
	c-0.268,0.646-0.316,1.387-0.551,2.479c-0.72-1.545-1.222-2.68-1.773-3.791c-1.476-2.975-3.657-4.707-7.124-5.371
	c-4.442-0.85-8.712,0.283-13.053,0.379c-1.242,0.027-2.556,1.369-3.637,2.332c-0.699,0.621-1.035,1.652-1.905,3.129
	c0-2.213,0-3.752,0-5.691C565.537,612.118,559.97,612.394,554.173,612.679z M193.786,720.21c0-1.732,0-3.094,0-4.455
	c0-19.834-0.004-39.668,0.007-59.502c0.001-1.881-0.048-3.781,0.198-5.639c0.308-2.324,1.155-2.963,3.465-3.023
	c1.756-0.045,3.518-0.066,5.272,0.006c2.148,0.09,2.872,0.705,3.167,2.895c0.299,2.221,0.554,4.467,0.56,6.703
	c0.042,19.457,0.022,38.914,0.03,58.373c0,1.324,0.075,2.65,0.123,4.229c5.762-1.518,11.371,0.045,16.661-1.635
	c0.083-0.609,0.175-0.971,0.176-1.332c0.007-25.984,0.025-51.971-0.003-77.955c-0.006-5.766-0.576-11.475-2.439-16.982
	c-1.884-5.568-5.865-8.58-11.621-9.123c-3.115-0.295-6.269-0.16-9.404-0.25c-3.393-0.096-5.708,1.547-7.217,4.457
	c-0.663,1.277-1.214,2.613-1.95,4.215c-0.758-1.637-1.322-2.969-1.979-4.252c-1.411-2.752-3.76-4.482-6.727-4.869
	c-3.956-0.518-7.97-0.631-11.963-0.809c-2.022-0.092-3.617,0.904-4.762,2.541c-0.515,0.738-0.888,1.576-1.505,2.695
	c-0.128-2.014-0.229-3.6-0.337-5.275c-5.791-0.299-11.352-0.586-17.063-0.881c0,37.916,0,75.377,0,113.195
	c5.813-0.453,11.444-0.893,17.249-1.344c0-1.66,0-2.902,0-4.146c0-12.93,0-25.859,0-38.789c0-8.412-0.037-16.822,0.033-25.232
	c0.013-1.596,0.302-3.23,0.753-4.762c0.198-0.67,1.101-1.559,1.729-1.598c2.109-0.133,4.243,0.018,6.359,0.17
	c1.882,0.137,2.938,1.277,3.149,3.123c0.24,2.107,0.559,4.221,0.564,6.332c0.042,19.961,0.024,39.92,0.028,59.881
	c0,1.318,0.035,2.639,0.057,4.197C182.317,720.974,187.769,720.61,193.786,720.21z M83.769,572.028
	c-7.174-0.764-14.221-1.541-21.274-2.256c-6.219-0.631-12.437-1.307-18.671-1.754c-7.071-0.508-9.799,1.389-12.123,6.877
	c-0.533,1.26-1.036,2.553-1.361,3.877c-1.705,6.953-2.214,14.057-2.232,21.174c-0.068,27.748-0.07,55.496-0.004,83.246
	c0.022,9.52-0.534,19.061,0.667,28.553c0.469,3.711,0.929,7.434,1.671,11.094c0.364,1.797,1.234,3.531,2.103,5.172
	c1.627,3.078,4.235,4.93,7.739,5.207c1.863,0.146,3.768,0.066,5.63-0.131c5.711-0.604,11.404-1.377,17.116-1.967
	c6.088-0.629,12.193-1.105,18.286-1.697c0.826-0.08,1.624-0.449,2.399-0.674c0-13.334,0-26.457,0-39.896
	c-2.173,0.191-4.119,0.432-6.072,0.521c-8.007,0.371-16.015,0.699-24.023,1.037c-0.502,0.021-1.009-0.031-1.506,0.021
	c-3.37,0.352-5.129-0.744-5.839-4.047c-0.47-2.184-0.751-4.453-0.758-6.684c-0.058-19.463-0.056-38.924-0.002-58.387
	c0.006-2.107,0.293-4.242,0.708-6.314c0.73-3.639,1.987-4.645,5.633-4.523c6.633,0.223,13.262,0.537,19.89,0.861
	c1.74,0.086,3.468,0.439,5.208,0.51c2.222,0.092,4.451,0.023,6.816,0.023C83.769,598.616,83.769,585.595,83.769,572.028z
	 M350.518,585.521c-4.208,0-8.087,0.018-11.964-0.004c-4.769-0.025-9.544,0.059-14.303-0.174c-3.234-0.158-6.403-0.328-9.676-0.063
	c-6.649,0.541-10.133,4.166-11.704,10.25c-1.381,5.348-1.987,10.789-1.994,16.301c-0.011,9.791-0.04,19.582,0.013,29.373
	c0.025,4.775,0.838,9.439,2.527,13.922c2.909,7.721,8.038,11.299,16.216,11.289c5.271-0.008,10.542-0.117,15.812-0.104
	c2.398,0.006,2.917,0.266,3.216,2.682c0.381,3.08,0.55,6.24,0.311,9.328c-0.241,3.123-1.154,3.639-4.445,3.652
	c-7.531,0.033-15.063,0.055-22.594,0.072c-3.602,0.01-7.202,0.002-10.742,0.002c-0.702,6.535-0.475,30.748,0.245,33.229
	c2.648,0,5.282,0.045,7.913-0.008c11.021-0.229,22.043-0.41,33.061-0.764c6.526-0.209,10.207-3.361,12.052-9.727
	c1.508-5.203,2.001-10.539,2.152-15.91c0.123-4.391,0.076-8.787,0.013-13.18c-0.107-7.387,0.421-14.785-0.676-22.15
	c-0.707-4.734-1.911-9.273-4.382-13.418c-2.563-4.299-6.08-6.74-11.348-6.545c-5.641,0.207-11.296,0.039-16.944,0.051
	c-1.499,0.002-3.013,0.104-4.141-1.102c-0.178-1.164-0.44-2.268-0.498-3.381c-0.124-2.369-0.349-4.76-0.152-7.111
	c0.287-3.43,1.031-3.971,4.521-3.961c8.033,0.023,16.065,0.08,24.097,0.121c1.091,0.006,2.184,0,3.416,0
	C350.518,607.222,350.518,596.606,350.518,585.521z M653.439,680.511c0.922,0,1.512-0.016,2.101,0.002
	c7.76,0.258,15.519,0.59,23.281,0.756c4.625,0.098,7.13-1.797,8.697-6.197c1.482-4.162,2.103-8.531,2.124-12.877
	c0.058-11.777,0.875-23.586-0.652-35.326c-0.448-3.434-1.191-6.857-2.125-10.195c-1.659-5.928-5.141-9.432-13.141-9.174
	c-4.875,0.158-9.747,0.439-14.616,0.721c-1.737,0.1-3.461,0.418-5.198,0.545c-7.868,0.572-12.338,5.123-14.835,12.273
	c-2.471,7.076-3.053,14.373-3.058,21.768c-0.012,16.199-0.086,32.398,0.04,48.596c0.045,5.875,0.428,11.758,0.962,17.609
	c0.327,3.588,1.213,7.129,2.977,10.359c1.749,3.203,4.128,5.68,7.828,6.48c2.554,0.553,5.128,1.105,7.723,1.365
	c6.591,0.658,13.202,1.107,19.797,1.729c3.471,0.326,6.923,0.852,10.39,1.246c0.577,0.064,1.178-0.094,1.761-0.148
	c0-12.719,0-25.23,0-37.871c-0.608-0.096-1.08-0.217-1.555-0.236c-7.633-0.314-15.27-0.59-22.901-0.938
	c-2.115-0.096-4.217-0.459-6.331-0.588c-1.327-0.082-1.972-0.76-2.459-1.914C653.181,685.968,653.646,683.384,653.439,680.511z
	 M141.87,667.005c0-10.422,0.08-20.846-0.034-31.266c-0.056-5.125-0.805-10.203-2.236-15.143
	c-2.002-6.914-6.707-10.584-13.921-10.967c-4.494-0.238-8.99-0.473-13.482-0.742c-2.74-0.164-5.476-0.549-8.214-0.563
	c-7.996-0.037-12.123,1.826-14.775,9.34c-0.372,1.053-0.59,2.16-0.872,3.244c-2.074,7.951-1.915,16.15-2.021,24.217
	c-0.257,19.686-0.568,39.389,0.516,59.068c0.165,2.992,0.329,6.023,0.948,8.939c0.616,2.9,1.606,5.766,2.793,8.488
	c1.375,3.154,3.888,5.252,7.422,5.584c2.238,0.211,4.528,0.146,6.772-0.051c7.213-0.633,14.409-1.453,21.624-2.064
	c6.265-0.533,10.425-3.582,12.561-9.553c2.004-5.602,2.744-11.418,2.861-17.27C142.02,687.851,141.87,677.427,141.87,667.005z
	 M548.996,719.3c0-1.512,0-2.375,0-3.236c0-25.363,0.005-50.725-0.008-76.088c-0.001-2.383,0.042-4.785-0.229-7.145
	c-0.482-4.209-1.034-8.414-2.776-12.363c-1.966-4.455-5.363-6.752-10.168-7.064c-1-0.066-2.007-0.141-3.008-0.121
	c-11.272,0.242-22.545,0.498-33.817,0.768c-0.468,0.012-0.932,0.201-1.344,0.297c-0.617,5.814-0.424,28.162,0.294,30.975
	c1.187,0,2.429,0,3.67,0c8.036,0,16.073,0.102,24.106-0.041c4.494-0.078,5.475,2.275,5.71,5.33c0.102,1.313,0.017,2.637,0.017,4.111
	c-7.971,0-15.489-0.008-23.007,0.006c-1.379,0.002-2.767-0.004-4.133,0.146c-3.896,0.43-6.508,2.596-7.481,6.34
	c-0.749,2.885-1.395,5.879-1.459,8.838c-0.189,8.654-0.233,17.32,0.006,25.971c0.127,4.602,0.968,9.18,2.844,13.48
	c1.471,3.373,3.673,5.977,7.375,6.898c1.926,0.48,3.902,0.922,5.875,1.025c7.75,0.404,15.507,0.666,23.262,0.979
	c0.627,0.025,1.257-0.01,1.883,0.031C540.572,718.706,544.535,718.987,548.996,719.3z M489.24,716.55c0-10.646,0-20.98,0-31.461
	c-7.708-0.236-15.197-0.48-22.688-0.693c-2.509-0.07-5.022-0.141-7.529-0.061c-1.825,0.059-2.812-0.77-3.275-2.424
	c-0.54-1.93-0.652-3.859-0.18-5.973c1.412,0,2.652-0.004,3.892,0.002c7.282,0.025,14.564,0.004,21.844,0.098
	c4.345,0.055,7.336-2.205,8.478-6.014c0.818-2.73,1.594-5.59,1.659-8.408c0.21-9.029,0.284-18.074-0.002-27.102
	c-0.145-4.584-0.978-9.199-3.111-13.396c-1.806-3.553-4.519-5.941-8.686-6.285c-1.987-0.162-3.975-0.529-5.957-0.492
	c-6.254,0.113-12.507,0.375-18.76,0.58c-0.125,0.004-0.251,0.014-0.375,0.025c-5.899,0.559-10.395,3.137-13.06,8.666
	c-2.151,4.467-3.413,9.178-3.457,14.059c-0.163,17.949-0.089,35.902-0.144,53.854c-0.014,4.404,0.498,8.738,1.653,12.973
	c1.746,6.404,5.114,10.533,13.352,10.771c2.633,0.076,5.27,0.047,7.901,0.146C470.155,715.771,479.513,716.157,489.24,716.55z
	 M297.57,615.034c-2.383-0.256-4.591-0.666-6.805-0.697c-8.53-0.119-17.063-0.256-25.591-0.119
	c-7.706,0.125-10.943,4.357-12.541,9.307c-1.428,4.424-2.153,9.016-2.186,13.613c-0.135,18.943-0.154,37.891,0.009,56.836
	c0.039,4.451,0.551,8.959,2.063,13.25c2.123,6.023,4.053,8.881,12.655,9.475c0.998,0.068,2.007,0.004,3.01-0.029
	c7.755-0.258,15.509-0.529,23.265-0.779c1.968-0.063,3.938-0.055,6.102-0.08c0-11.357,0-22.316,0-33.352c-9.563,0-18.897,0-28.372,0
	c-1.097-1.305-1.401-2.977-1.398-4.77c0.013-8.156,0.01-16.313,0.003-24.469c-0.001-1.789,0.308-3.471,1.778-5.244
	c9.102,0,18.457,0,28.008,0C297.57,636.862,297.57,626.122,297.57,615.034z M692.534,606.546c0,41.234,0,81.898,0.005,122.561
	c0,0.373,0.063,0.746,0.117,1.117c0.016,0.113,0.08,0.23,0.154,0.32c0.077,0.096,0.193,0.158,0.404,0.322
	c5.411,0.561,10.938,1.131,16.769,1.734c0-1.615,0-2.848,0-4.08c0-23.977-0.002-47.953,0.005-71.932
	c0-1.756-0.061-3.527,0.142-5.264c0.152-1.307,0.682-2.568,1.107-4.078c7.246,0,14.217,0,21.144,0c0-14.451,0-28.576,0-43.031
	c-5.7,0.338-11.176,0.623-16.645,1.008c-1.728,0.121-3.024,1.197-3.945,2.596c-0.602,0.916-0.966,1.984-1.583,3.293
	c-0.147-1.881-0.271-3.455-0.429-5.461C704.06,605.948,698.502,606.235,692.534,606.546z M360.486,586.433c0,0.971,0,1.584,0,2.195
	c0,16.449-0.097,32.898,0.025,49.346c0.138,18.557-0.625,37.125,0.593,55.67c0.172,2.613,0.293,5.273,0.89,7.807
	c1.85,7.852,4.219,12.949,15.356,13.043c3.766,0.031,7.533,0.037,11.3,0.016c0.821-0.006,1.642-0.184,2.363-0.271
	c0-10.889,0-21.508,0-32.389c-3.198,0-6.194,0.063-9.187-0.02c-2.354-0.063-3.131-0.85-3.33-3.119
	c-0.087-0.998-0.082-2.006-0.083-3.01c-0.006-8.162-0.003-16.324-0.003-24.484c0-0.963,0-1.924,0-3.178c2.944,0,5.528,0,8.051,0
	c0.625-4.416,0.516-30.01-0.164-33.082c-2.503,0-5.082,0-7.935,0c0-9.656,0-19.014,0-28.523
	C372.348,586.433,366.625,586.433,360.486,586.433z M394.443,615.173c0,33.213,0,66.156,0,99.188c5.784,0,11.369,0,17.276,0
	c0-1.367,0-2.592,0-3.816c0-18.705,0.009-37.41-0.013-56.113c-0.002-2.146,0.098-4.23,1.505-6.387c6.833,0,13.813,0,20.92,0
	c0-11.152,0-21.986,0-33.064c-4.687,0-9.187,0.131-13.677-0.039c-3.9-0.146-6.896,1.016-8.59,5.137
	c-0.125-1.902-0.222-3.363-0.324-4.904C405.78,615.173,400.291,615.173,394.443,615.173z M246.593,623.376
	c-5.918,0-11.506,0-17.234,0c0,31.625,0,63.072,0,94.799c5.824-0.287,11.49-0.566,17.234-0.85
	C246.593,685.94,246.593,654.835,246.593,623.376z M229.34,613.419c5.959,0.248,11.524,0.48,17.122,0.715
	c0-10.463,0-20.541,0-30.992c-5.889,0.629-11.508-1.041-17.122-0.418C229.34,593.14,229.34,603.146,229.34,613.419z"/>
<path fill-rule="evenodd" clip-rule="evenodd" fill="#29A9E0" d="M78.522,415.409c0.088-17.445,3.691-33.975,11.793-49.379
	c6.79-12.912,15.72-24.223,26.947-33.621c3.183-2.664,6.364-5.377,9.825-7.644c2.3-1.506,5.038-2.956,7.681-3.168
	c3.304-0.264,6.244-1.311,8.872-2.84c6.157-3.582,12.968-4.984,19.729-6.396c8.579-1.79,17.222-3.441,26.093-3.126
	c3.359,0.12,4.553-1.209,4.716-4.941c0.27-6.153,1.466-12.131,2.923-18.093c3.239-13.255,9.523-24.988,17.551-35.893
	c14.701-19.972,34.726-31.745,58.319-38.152c13.037-3.54,26.219-5.751,39.772-5.206c3.715,0.149,6.642-1.137,9.291-3.847
	c7.32-7.485,14.66-14.953,23.276-21.044c14.864-10.508,31.303-16.975,49.195-20.081c9.67-1.679,19.362-2.824,29.169-2.644
	c15.203,0.281,29.884,3.313,43.983,9c10.646,4.295,20.659,9.768,29.712,16.877c2.875,2.259,5.573,4.741,8.384,7.084
	c4.423,3.687,9.297,4.964,15.183,4.165c24.208-3.288,47.649-0.784,69.526,10.855c19.291,10.265,34.93,24.427,46.086,43.468
	c6.501,11.096,11.229,22.669,13.865,35.311c2.335,11.197,1.969,22.402,1.637,33.61c-0.173,5.824-2.207,11.572-2.706,17.412
	c-0.678,7.936-0.979,15.928-0.93,23.891c0.107,17.469,0.669,34.932,0.764,52.4c0.033,6.232-0.678,12.463-1.845,18.633
	c-0.641,3.383-0.644,6.881-1.102,10.305c-1.734,12.992-4.684,25.682-9.343,37.969c-5.773,15.227-16.382,25.838-30.824,32.902
	c-5.481,2.682-10.96,4.887-17.313,5.135c-5.806,0.227-11.536,1.982-17.341,2.748c-8.528,1.125-17.198,1.885-25.699,0.91
	c-11.268-1.293-21.829-5.225-31.232-11.832c-2.893-2.031-5.947-3.863-8.659-6.109c-1.499-1.244-2.816-1.951-4.815-1.977
	c-2.009-0.025-3.652,0.654-4.933,1.861c-6.781,6.404-14.726,10.957-23.132,14.771c-7.367,3.342-15.104,5.158-23.223,5.498
	c-5.264,0.221-10.595-0.938-15.794,0.705c-6.437-1.346-13.034-1.934-19.306-4.049c-6.845-2.309-13.413-5.16-19.138-9.699
	c-2.145-1.699-4.521-3.123-6.566-4.928c-3.476-3.066-6.776-2.154-10.23-0.066c-5.751,3.479-11.358,7.26-17.362,10.236
	c-10.247,5.08-21.056,8.236-32.714,7.818c-4.041-0.146-8.145,0.793-12.148,0.438c-4.966-0.443-9.97-1.33-14.756-2.721
	c-7.292-2.115-14.633-4.32-21.203-8.27c-1.624-0.975-2.973-1.496-4.912-1.654c-3.654-0.299-6.272,1.174-8.973,3.23
	c-6.785,5.166-14.238,8.703-22.986,8.961c-1.925,0.059-3.866,1.027-5.744,0.877c-4.033-0.32-8.029-1.1-12.042-1.686
	c-0.809-0.117-1.623-0.303-2.433-0.289c-2.464,0.039-4.877-0.484-7.266-0.703c-3.813-0.352-7.752,0.66-11.636,1.121
	c-1.115,0.133-2.222,0.5-3.332,0.502c-10.996,0.018-21.993-0.018-32.989-0.045c-0.818-0.002-1.705,0.139-2.444-0.117
	c-6.86-2.381-13.729-4.74-20.526-7.289c-6.237-2.338-12.205-5.143-17.27-9.701c-3.073-2.766-6.618-5.008-9.953-7.482
	c-8.106-6.012-14.345-13.602-20.09-21.9c-8.746-12.635-14.333-26.461-17.355-41.32C79.168,429.407,79.155,422.345,78.522,415.409z
	 M295.95,233.605c1.274,4.726,2.307,9.011,3.59,13.219c2.851,9.341,4.224,18.987,4.523,28.636
	c0.354,11.422,0.695,22.875-0.604,34.34c-1.02,8.999-2.257,17.91-4.11,26.773c-2.486,11.893-5.571,23.582-9.984,34.916
	c-0.646,1.66-0.92,3.49-1.171,5.268c-0.276,1.965,0.694,3.086,2.687,3.459c10.202,1.904,19.808,5.75,29.577,9.08
	c8.128,2.77,15.909,6.135,23.268,10.643c8.064,4.939,15.782,10.223,22.581,16.85c5.13,4.998,9.582,10.531,13.897,16.209
	c0.641,0.842,1.456,1.551,2.857,3.021c0.147-2.396,0.313-3.826,0.313-5.256c0.014-45.65-0.012-91.301,0.054-136.953
	c0.006-3.764-0.907-7.168-2.579-10.434c-0.826-1.611-1.808-3.144-2.741-4.699c-7.436-12.394-16.906-22.958-28.99-30.911
	c-10.668-7.021-22.171-12.195-35.077-13.653c-4.399-0.497-8.761-1.367-13.167-1.748C299.395,232.236,297.833,233.099,295.95,233.605
	z M478.592,233.579c-9.034-1.062-18.564-0.525-26.805,1.957c-14.741,4.44-27.919,11.637-39.007,22.538
	c-5.594,5.5-10.399,11.552-14.541,18.164c-1.741,2.78-3.443,5.599-4.949,8.51c-2.452,4.743-2.132,9.939-2.132,15.063
	c0.005,43.46,0.01,86.917,0.03,130.376c0.001,1.281,0.188,2.563,0.275,3.695c1.668,0.623,2.253-0.063,3.076-1.123
	c3.237-4.178,6.405-8.469,10.107-12.215c9.925-10.045,20.969-18.629,33.977-24.445c4.507-2.016,8.913-4.264,13.466-6.166
	c3.462-1.447,7.045-2.641,10.64-3.729c6.729-2.035,13.518-3.873,20.26-5.867c3.244-0.961,3.813-1.883,3.231-4.898
	c-0.185-0.955-0.652-1.852-0.933-2.793c-2.798-9.414-5.755-18.785-8.316-28.264c-1.794-6.641-2.877-13.445-3.941-20.265
	c-1.296-8.303-2.749-16.551-2.765-24.983c-0.024-13.243-0.589-26.497,1.971-39.63c1.38-7.079,2.563-14.178,5.211-20.939
	C478.022,237.097,478.173,235.463,478.592,233.579z M398.736,461.661c1.633-0.973,2.82-1.539,3.85-2.314
	c7.953-6.002,16.677-10.566,25.932-14.201c10.994-4.316,22.089-8.268,33.593-11.078c6.87-1.68,13.757-3.059,20.769-3.953
	c6.182-0.787,12.307-2.025,18.491-2.771c4.912-0.594,9.88-0.713,14.817-1.105c2.768-0.219,3.43-1.215,2.663-3.9
	c-1.17-4.09-2.486-8.143-3.567-12.256c-2.754-10.479-4.736-21.092-6.229-31.838c-1.225-8.818-2.635-17.592-2.835-26.512
	c-0.025-1.164,0.131-2.363-0.088-3.49c-1.535-7.912-0.784-15.902-0.624-23.84c0.126-6.231,1.082-12.453,1.792-18.665
	c0.409-3.581,1.044-7.137,1.606-10.7c1.362-8.624,4.037-16.883,6.995-25.063c0.568-1.571,0.956-3.181-0.684-5.088
	c-2.507,0.416-5.275,0.723-7.97,1.349c-8.317,1.934-16.52,4.192-24.277,7.93c-4.128,1.988-5.935,4.927-5.726,9.438
	c0.392,8.438-0.57,16.901,0.857,25.337c0.797,4.706,0.581,9.581,1.334,14.298c1.005,6.301,2.555,12.51,3.786,18.775
	c2.311,11.756,5.569,23.256,9.311,34.623c0.801,2.438,1.892,4.777,2.747,6.908c-2.229,2.846-5.095,2.396-7.604,2.967
	c-12.386,2.82-24.226,7.342-35.549,12.902c-15.828,7.775-30.38,17.484-41.301,31.775c-6.269,8.205-11.113,17.1-13.178,27.309
	C397.479,459.335,398.265,460.366,398.736,461.661z M377.31,459.554c-3.096-13.08-9.306-24.334-18.359-34.023
	c-7.395-7.914-15.963-14.33-25.342-19.76c-15.613-9.037-31.941-16.172-49.74-19.631c-3.85-0.748-4.973-2.617-3.397-6.299
	c4.019-9.393,6.559-19.223,8.844-29.127c2.024-8.777,4.104-17.551,5.807-26.394c1.056-5.48,1.839-11.072,2.062-16.643
	c0.341-8.485-0.099-17.001,0.176-25.491c0.123-3.813-1.843-6.013-4.606-7.612c-2.531-1.465-5.438-2.276-8.17-3.396
	c-7.179-2.942-14.829-4.103-22.316-5.859c-3.223-0.757-4.454,0.924-3.338,4.244c1.096,3.262,2.393,6.464,3.315,9.772
	c1.897,6.799,3.128,13.727,4.257,20.709c1.372,8.48,2.296,16.986,2.645,25.525c0.514,12.588,0.175,25.172-1.791,37.676
	c-1.199,7.633-1.813,15.361-3.112,22.971c-1.902,11.143-4.127,22.234-7.48,33.055c-0.702,2.264-0.845,4.463-0.178,6.506
	c7.515,0.816,14.729,1.455,21.898,2.414c9.284,1.24,18.694,2.072,27.768,4.254c23.25,5.592,45.83,13.119,66.015,26.457
	C373.725,459.866,374.975,460.812,377.31,459.554z M408.792,463.784c3.099,0.365,6.08,0.416,9.269-0.346
	c7.646-1.824,15.459-2.975,23.226-4.266c3.246-0.541,6.546-0.768,9.824-1.109c6.055-0.629,12.106-1.697,18.17-1.77
	c17.108-0.209,34.237-0.92,51.317,0.865c3.938,0.412,7.916,0.537,11.815,1.172c6.789,1.105,13.52,2.568,20.301,3.736
	c1.719,0.297,3.532,0.045,5.761,0.045c-0.291-2.313-0.285-4.135-0.77-5.816c-4.217-14.639-8.64-29.221-12.752-43.887
	c-2.164-7.719-3.97-15.547-5.678-23.383c-1.325-6.082-2.378-12.229-3.317-18.385c-1.042-6.818-1.863-13.672-2.69-20.52
	c-0.414-3.432-0.834-6.883-0.891-10.332c-0.169-10.422-0.559-20.868,1.647-31.171c0.759-3.546-0.731-5.104-4.347-4.322
	c-1.908,0.413-3.732,1.255-5.561,1.985c-2.285,0.914-4.457,2.371-6.818,2.785c-6.039,1.058-6.952,5.921-6.805,11.393
	c0.058,2.118,0.579,4.221,0.707,6.342c0.35,5.777,0.308,11.553,0.822,17.354c0.771,8.709,1.708,17.365,3.244,25.959
	c1.441,8.063,2.685,16.188,4.682,24.117c2.958,11.744,6.513,23.338,9.785,35.002c0.299,1.068,0.395,2.193,0.646,3.648
	c-1.604,0.471-2.958,1.08-4.361,1.24c-3.931,0.445-7.877,0.834-11.827,1.016c-9.889,0.457-19.573,2.258-29.301,3.939
	c-13.92,2.404-27.568,5.754-41.016,10.07C431.807,453.022,420.264,458.099,408.792,463.784z M365.43,464.069
	c-2.795-3.311-6.111-4.598-9.325-5.75c-11.567-4.148-23.123-8.377-34.877-11.936c-10.493-3.178-21.254-5.393-32.085-7.293
	c-10.386-1.82-20.733-3.65-31.303-3.979c-3.451-0.109-6.891-0.607-10.335-0.928c-3.061-0.283-3.56-1.105-2.629-4.191
	c2.034-6.742,4.261-13.436,6.008-20.252c2.033-7.932,3.797-15.941,5.383-23.975c1.556-7.885,2.628-15.863,4.12-23.762
	c1.718-9.092,2.707-18.236,2.909-27.486c0.122-5.617,0.432-11.231,0.73-16.843c0.184-3.464-1.313-6.503-4.667-7.871
	c-5.006-2.041-10.107-3.88-15.261-5.515c-2.651-0.841-3.868,0.736-3.483,3.607c0.633,4.725,1.532,9.47,1.544,14.208
	c0.02,8.44,0.301,16.866-0.571,25.345c-0.725,7.045-0.976,14.17-2.398,21.111c-1.146,5.59-0.913,11.459-3.391,16.795
	c-0.461,0.992-0.354,2.26-0.46,3.404c-0.123,1.318-0.006,2.688-0.316,3.955c-1.673,6.836-3.283,13.693-5.221,20.455
	c-4.192,14.637-8.539,29.23-12.913,43.816c-0.538,1.795-1.01,3.416,0.136,5.441c1.803-0.277,3.577-0.531,5.343-0.826
	c2.752-0.461,5.487-1.031,8.249-1.412c5.538-0.764,11.085-1.465,16.636-2.129c5.385-0.645,10.771-1.637,16.17-1.727
	c14.818-0.244,29.644-0.096,44.466-0.098c1.165,0,2.341-0.043,3.494,0.088c5.227,0.588,10.455,1.176,15.668,1.867
	c5.698,0.756,11.421,1.416,17.06,2.502c6.261,1.205,12.432,2.879,18.665,4.24C363.416,465.075,364.215,464.487,365.43,464.069z
	 M363.623,470.45c8.705,9.648,34.413,10.586,44.363,0.045C393.139,468.585,378.382,469.134,363.623,470.45z"/>
<path fill-rule="evenodd" clip-rule="evenodd" fill="#29A9E0" d="M798.544,216.53c-3.186,1.378-6.063,2.576-8.9,3.861
	c-4.064,1.843-8.102,3.749-12.149,5.63c-0.602,0.279-1.183,0.611-1.801,0.846c-3.206,1.215-4.205,0.68-5.466-2.716
	c-2.584-6.961-5.044-13.975-7.849-20.848c-7.63-18.695-17.891-35.833-30.776-51.405c-21.048-25.438-47.143-44.017-77.207-57.33
	c-14.563-6.449-29.619-11.281-45.255-14.145c-6.825-1.25-13.806-1.751-20.74-2.267c-6.278-0.466-12.591-0.462-18.887-0.718
	c-3.833-0.156-4.412-0.682-4.255-4.438c0.29-6.966,0.684-13.929,1.143-20.886c0.224-3.394,1.595-4.716,5.07-4.777
	c9.299-0.164,18.57,0.363,27.787,1.604c7.21,0.972,14.431,1.921,21.59,3.199c18.495,3.303,36.016,9.543,52.938,17.657
	c17.121,8.208,33.262,17.979,48.063,29.85c20.124,16.139,37.071,35.146,50.654,57.134c9.418,15.247,17.193,31.264,23.173,48.153
	c0.771,2.177,1.574,4.352,2.159,6.58C798.243,213.065,798.3,214.707,798.544,216.53z"/>
<path fill-rule="evenodd" clip-rule="evenodd" fill="#29A9E0" d="M756.135,238.259c-1.394,0.862-2.819,1.959-4.411,2.693
	c-6.153,2.836-12.355,5.565-18.549,8.314c-3.406,1.512-4.604,1.101-6.042-2.509c-1.221-3.061-2.107-6.253-3.177-9.375
	c-5.207-15.2-13.223-28.889-22.894-41.603c-14.111-18.553-30.604-34.567-50.886-46.383c-15.98-9.31-33.026-15.741-51.193-19.326
	c-11.734-2.315-23.524-3.774-35.486-3.889c-3.962-0.038-4.631-0.756-4.451-4.754c0.318-7.13,0.729-14.256,1.145-21.38
	c0.175-3.012,0.938-3.955,3.95-3.884c6.302,0.147,12.595,0.586,18.893,0.889c8.631,0.416,17.035,2.196,25.472,3.938
	c13.518,2.791,26.376,7.41,38.854,13.2c16.629,7.716,32.107,17.302,46.193,29.03c16.748,13.945,30.552,30.451,41.713,49.159
	C744.157,207.283,751.318,223.056,756.135,238.259z"/>
<path fill-rule="evenodd" clip-rule="evenodd" fill="#29A9E0" d="M553.061,172.718c0.635-9.832,1.253-19.403,1.902-29.452
	c1.759,0,3.035-0.042,4.309,0.006c37.118,1.394,70.084,13.985,99.351,36.694c25.094,19.472,42.22,44.606,53.145,74.198
	c2.25,6.095,2.081,6.288-3.686,8.821c-5.144,2.259-10.229,4.647-15.34,6.983c-0.602,0.274-1.174,0.619-1.789,0.855
	c-3.291,1.263-4.895,0.595-6.229-2.703c-2.107-5.203-4.07-10.466-6.242-15.641c-4.401-10.486-10.731-19.793-17.968-28.483
	c-11.491-13.798-25.131-25.058-40.81-33.813c-12.063-6.737-24.949-11.281-38.484-13.964c-8.617-1.707-17.311-2.848-26.122-2.86
	C554.64,173.36,554.183,173.082,553.061,172.718z"/>
<path fill-rule="evenodd" clip-rule="evenodd" fill="#29A9E0" d="M554.173,612.679c5.797-0.285,11.363-0.561,17.238-0.854
	c0,1.939,0,3.479,0,5.691c0.87-1.477,1.207-2.508,1.905-3.129c1.081-0.963,2.396-2.305,3.637-2.332
	c4.341-0.096,8.611-1.229,13.053-0.379c3.467,0.664,5.647,2.396,7.124,5.371c0.551,1.111,1.053,2.246,1.773,3.791
	c0.235-1.092,0.284-1.832,0.551-2.479c1.868-4.52,3.626-8.086,11.212-7.912c2.257,0.051,4.519-0.072,6.776-0.035
	c5.169,0.084,8.749,2.543,10.709,7.332c1.768,4.316,2.507,8.857,2.78,13.477c1.376,23.186,0.403,46.398,0.664,69.596
	c0.089,7.896,0.014,15.791,0.014,23.654c-2.61,0.574-11.272-0.072-17.322-1.289c0-1.15,0-2.379,0-3.607
	c0-20.84,0.022-41.682-0.03-62.521c-0.006-2.357-0.35-4.725-0.687-7.066c-0.116-0.807-0.69-1.547-1.095-2.404
	c-2.623,0-5.124,0.055-7.62-0.021c-1.5-0.047-2.468,0.535-2.698,1.99c-0.29,1.84-0.582,3.705-0.585,5.561
	c-0.041,20.715-0.026,41.43-0.026,62.145c0,1.729,0,3.459,0,5.457c-5.86-0.445-11.41-0.867-17.403-1.32c0-1.467,0-2.805,0-4.143
	c0-19.963,0.019-39.926-0.027-59.887c-0.004-2.105-0.488-4.207-0.566-6.316c-0.084-2.264-1.485-3.117-3.375-3.256
	c-2.226-0.166-4.473-0.039-6.804-0.039c-1.675,1.727-1.899,3.936-1.897,6.223c0.004,6.027,0.001,12.053,0.001,18.08
	c0,14.814,0,29.629,0,44.443c0,1.23,0,2.459,0,4.104c-5.85-0.355-11.405-0.693-16.949-1.029
	C553.789,716.489,553.475,625.179,554.173,612.679z"/>
<path fill-rule="evenodd" clip-rule="evenodd" fill="#29A9E0" d="M193.786,720.21c-6.017,0.4-11.469,0.764-17.391,1.158
	c-0.022-1.559-0.057-2.879-0.057-4.197c-0.004-19.961,0.015-39.92-0.028-59.881c-0.005-2.111-0.324-4.225-0.564-6.332
	c-0.21-1.846-1.267-2.986-3.149-3.123c-2.116-0.152-4.25-0.303-6.359-0.17c-0.628,0.039-1.532,0.928-1.729,1.598
	c-0.452,1.531-0.74,3.166-0.753,4.762c-0.069,8.41-0.033,16.82-0.033,25.232c0,12.93,0,25.859,0,38.789c0,1.244,0,2.486,0,4.146
	c-5.805,0.451-11.435,0.891-17.249,1.344c0-37.818,0-75.279,0-113.195c5.712,0.295,11.273,0.582,17.063,0.881
	c0.107,1.676,0.209,3.262,0.337,5.275c0.617-1.119,0.99-1.957,1.505-2.695c1.145-1.637,2.74-2.633,4.762-2.541
	c3.994,0.178,8.007,0.291,11.963,0.809c2.967,0.387,5.315,2.117,6.727,4.869c0.657,1.283,1.221,2.615,1.979,4.252
	c0.736-1.602,1.287-2.938,1.95-4.215c1.508-2.91,3.824-4.553,7.217-4.457c3.135,0.09,6.289-0.045,9.404,0.25
	c5.755,0.543,9.737,3.555,11.621,9.123c1.863,5.508,2.433,11.217,2.439,16.982c0.028,25.984,0.011,51.971,0.003,77.955
	c0,0.361-0.093,0.723-0.176,1.332c-5.291,1.68-10.899,0.117-16.661,1.635c-0.048-1.578-0.123-2.904-0.123-4.229
	c-0.008-19.459,0.013-38.916-0.03-58.373c-0.005-2.236-0.261-4.482-0.56-6.703c-0.295-2.189-1.019-2.805-3.167-2.895
	c-1.754-0.072-3.516-0.051-5.272-0.006c-2.31,0.061-3.157,0.699-3.465,3.023c-0.246,1.857-0.196,3.758-0.198,5.639
	c-0.012,19.834-0.007,39.668-0.007,59.502C193.786,717.116,193.786,718.478,193.786,720.21z"/>
<path fill-rule="evenodd" clip-rule="evenodd" fill="#29A9E0" d="M83.769,572.028c0,13.566,0,26.588,0,39.844
	c-2.365,0-4.594,0.068-6.816-0.023c-1.74-0.07-3.468-0.424-5.208-0.51c-6.628-0.324-13.257-0.639-19.89-0.861
	c-3.646-0.121-4.902,0.885-5.633,4.523c-0.416,2.072-0.703,4.207-0.708,6.314c-0.053,19.463-0.055,38.924,0.002,58.387
	c0.006,2.23,0.288,4.5,0.758,6.684c0.71,3.303,2.469,4.398,5.839,4.047c0.497-0.053,1.004,0,1.506-0.021
	c8.008-0.338,16.016-0.666,24.023-1.037c1.953-0.09,3.899-0.33,6.072-0.521c0,13.439,0,26.563,0,39.896
	c-0.775,0.225-1.573,0.594-2.399,0.674c-6.093,0.592-12.198,1.068-18.286,1.697c-5.712,0.59-11.405,1.363-17.116,1.967
	c-1.862,0.197-3.767,0.277-5.63,0.131c-3.503-0.277-6.111-2.129-7.739-5.207c-0.869-1.641-1.739-3.375-2.103-5.172
	c-0.742-3.66-1.202-7.383-1.671-11.094c-1.2-9.492-0.645-19.033-0.667-28.553c-0.065-27.75-0.064-55.498,0.004-83.246
	c0.018-7.117,0.527-14.221,2.232-21.174c0.325-1.324,0.828-2.617,1.361-3.877c2.323-5.488,5.052-7.385,12.123-6.877
	c6.234,0.447,12.452,1.123,18.671,1.754C69.548,570.487,76.595,571.265,83.769,572.028z"/>
<path fill-rule="evenodd" clip-rule="evenodd" fill="#29A9E0" d="M350.518,585.521c0,11.086,0,21.701,0,32.672
	c-1.232,0-2.325,0.006-3.416,0c-8.032-0.041-16.064-0.098-24.097-0.121c-3.489-0.01-4.233,0.531-4.521,3.961
	c-0.196,2.352,0.029,4.742,0.152,7.111c0.058,1.113,0.319,2.217,0.498,3.381c1.128,1.205,2.642,1.104,4.141,1.102
	c5.648-0.012,11.303,0.156,16.944-0.051c5.268-0.195,8.785,2.246,11.348,6.545c2.471,4.145,3.676,8.684,4.382,13.418
	c1.098,7.365,0.569,14.764,0.676,22.15c0.063,4.393,0.109,8.789-0.013,13.18c-0.151,5.371-0.644,10.707-2.152,15.91
	c-1.846,6.365-5.526,9.518-12.052,9.727c-11.017,0.354-22.04,0.535-33.061,0.764c-2.631,0.053-5.265,0.008-7.913,0.008
	c-0.72-2.48-0.947-26.693-0.245-33.229c3.54,0,7.141,0.008,10.742-0.002c7.531-0.018,15.063-0.039,22.594-0.072
	c3.291-0.014,4.204-0.529,4.445-3.652c0.239-3.088,0.07-6.248-0.311-9.328c-0.299-2.416-0.818-2.676-3.216-2.682
	c-5.271-0.014-10.542,0.096-15.812,0.104c-8.178,0.01-13.307-3.568-16.216-11.289c-1.689-4.482-2.501-9.146-2.527-13.922
	c-0.053-9.791-0.024-19.582-0.013-29.373c0.006-5.512,0.613-10.953,1.994-16.301c1.57-6.084,5.055-9.709,11.704-10.25
	c3.273-0.266,6.442-0.096,9.676,0.063c4.759,0.232,9.535,0.148,14.303,0.174C342.431,585.538,346.309,585.521,350.518,585.521z"/>
<path fill-rule="evenodd" clip-rule="evenodd" fill="#29A9E0" d="M653.439,680.511c0.206,2.873-0.258,5.457,0.81,7.984
	c0.487,1.154,1.133,1.832,2.459,1.914c2.114,0.129,4.216,0.492,6.331,0.588c7.632,0.348,15.268,0.623,22.901,0.938
	c0.476,0.02,0.947,0.141,1.555,0.236c0,12.641,0,25.152,0,37.871c-0.583,0.055-1.184,0.213-1.761,0.148
	c-3.466-0.395-6.918-0.92-10.39-1.246c-6.595-0.621-13.207-1.07-19.797-1.729c-2.595-0.26-5.169-0.813-7.723-1.365
	c-3.7-0.801-6.08-3.277-7.828-6.48c-1.764-3.23-2.649-6.771-2.977-10.359c-0.534-5.852-0.917-11.734-0.962-17.609
	c-0.126-16.197-0.052-32.396-0.04-48.596c0.004-7.395,0.586-14.691,3.058-21.768c2.497-7.15,6.967-11.701,14.835-12.273
	c1.737-0.127,3.46-0.445,5.198-0.545c4.87-0.281,9.741-0.563,14.616-0.721c8-0.258,11.482,3.246,13.141,9.174
	c0.934,3.338,1.677,6.762,2.125,10.195c1.526,11.74,0.709,23.549,0.652,35.326c-0.021,4.346-0.642,8.715-2.124,12.877
	c-1.567,4.4-4.072,6.295-8.697,6.197c-7.762-0.166-15.521-0.498-23.281-0.756C654.952,680.495,654.362,680.511,653.439,680.511z
	 M653.277,645.099c-1.159,3.287-1.335,6.068-0.571,8.961c0.379,1.436,0.993,2.178,2.524,2.18c4.893,0.01,9.786,0.035,14.677,0.139
	c1.554,0.033,2.442-0.629,2.557-2.088c0.184-2.348,0.434-4.73,0.222-7.059c-0.202-2.234-0.912-2.631-3.266-2.654
	c-3.891-0.037-7.782-0.057-11.672,0.014C656.274,644.618,654.805,644.917,653.277,645.099z"/>
<path fill-rule="evenodd" clip-rule="evenodd" fill="#29A9E0" d="M141.87,667.005c0,10.422,0.15,20.846-0.059,31.264
	c-0.117,5.852-0.857,11.668-2.861,17.27c-2.136,5.971-6.296,9.02-12.561,9.553c-7.215,0.611-14.411,1.432-21.624,2.064
	c-2.245,0.197-4.535,0.262-6.772,0.051c-3.535-0.332-6.047-2.43-7.422-5.584c-1.187-2.723-2.178-5.588-2.793-8.488
	c-0.619-2.916-0.783-5.947-0.948-8.939c-1.084-19.68-0.773-39.383-0.516-59.068c0.105-8.066-0.054-16.266,2.021-24.217
	c0.282-1.084,0.5-2.191,0.872-3.244c2.653-7.514,6.78-9.377,14.775-9.34c2.738,0.014,5.475,0.398,8.214,0.563
	c4.493,0.27,8.988,0.504,13.482,0.742c7.215,0.383,11.919,4.053,13.921,10.967c1.431,4.939,2.18,10.018,2.236,15.143
	C141.949,646.159,141.87,656.583,141.87,667.005z M104.112,668.104c0.008,0,0.017,0,0.025,0c0,5.4-0.058,10.799,0.023,16.197
	c0.043,2.928,0.979,3.75,3.931,3.633c3.62-0.143,7.233-0.465,10.853-0.596c4.602-0.168,5.543-0.975,5.569-5.518
	c0.052-9.291,0.043-18.584-0.006-27.875c-0.007-1.354-0.42-2.699-0.566-4.057c-0.181-1.688-1.052-2.344-2.75-2.332
	c-4.393,0.029-8.786-0.098-13.179-0.088c-2.158,0.004-2.986,0.586-3.526,2.604c-0.317,1.188-0.349,2.473-0.358,3.717
	C104.089,658.562,104.112,663.333,104.112,668.104z"/>
<path fill-rule="evenodd" clip-rule="evenodd" fill="#29A9E0" d="M548.996,719.3c-4.461-0.313-8.424-0.594-12.389-0.863
	c-0.625-0.041-1.256-0.006-1.883-0.031c-7.755-0.313-15.512-0.574-23.262-0.979c-1.973-0.104-3.949-0.545-5.875-1.025
	c-3.702-0.922-5.904-3.525-7.375-6.898c-1.876-4.301-2.716-8.879-2.844-13.48c-0.239-8.65-0.195-17.316-0.006-25.971
	c0.064-2.959,0.71-5.953,1.459-8.838c0.973-3.744,3.585-5.91,7.481-6.34c1.366-0.15,2.754-0.145,4.133-0.146
	c7.518-0.014,15.036-0.006,23.007-0.006c0-1.475,0.084-2.799-0.017-4.111c-0.235-3.055-1.216-5.408-5.71-5.33
	c-8.033,0.143-16.071,0.041-24.106,0.041c-1.241,0-2.483,0-3.67,0c-0.718-2.813-0.911-25.16-0.294-30.975
	c0.412-0.096,0.875-0.285,1.344-0.297c11.271-0.27,22.544-0.525,33.817-0.768c1.001-0.02,2.008,0.055,3.008,0.121
	c4.806,0.313,8.202,2.609,10.168,7.064c1.743,3.949,2.294,8.154,2.776,12.363c0.271,2.359,0.228,4.762,0.229,7.145
	c0.013,25.363,0.008,50.725,0.008,76.088C548.996,716.925,548.996,717.788,548.996,719.3z M531.322,685.745c0-3.33,0-6.383,0-9.727
	c-3.2,0-6.183,0-9.167,0c-3.094,0-6.188,0-9.158,0c-1.147,3.408-1.235,5.504-0.64,7.627c0.387,1.375,1.02,2.139,2.586,2.121
	C520.312,685.71,525.681,685.745,531.322,685.745z"/>
<path fill-rule="evenodd" clip-rule="evenodd" fill="#29A9E0" d="M489.24,716.55c-9.727-0.393-19.084-0.779-28.444-1.135
	c-2.631-0.1-5.268-0.07-7.901-0.146c-8.238-0.238-11.606-4.367-13.352-10.771c-1.155-4.234-1.667-8.568-1.653-12.973
	c0.055-17.951-0.019-35.904,0.144-53.854c0.044-4.881,1.306-9.592,3.457-14.059c2.665-5.529,7.161-8.107,13.06-8.666
	c0.125-0.012,0.25-0.021,0.375-0.025c6.253-0.205,12.505-0.467,18.76-0.58c1.982-0.037,3.97,0.33,5.957,0.492
	c4.167,0.344,6.879,2.732,8.686,6.285c2.133,4.197,2.966,8.813,3.111,13.396c0.286,9.027,0.212,18.072,0.002,27.102
	c-0.064,2.818-0.84,5.678-1.659,8.408c-1.141,3.809-4.133,6.068-8.478,6.014c-7.28-0.094-14.562-0.072-21.844-0.098
	c-1.24-0.006-2.48-0.002-3.892-0.002c-0.472,2.113-0.36,4.043,0.18,5.973c0.463,1.654,1.45,2.482,3.275,2.424
	c2.506-0.08,5.02-0.01,7.529,0.061c7.49,0.213,14.979,0.457,22.688,0.693C489.24,695.569,489.24,705.903,489.24,716.55z
	 M454.946,646.257c-1.246,2.742-1.283,5.58,0.222,8.574c6.209,0,12.421,0,18.586,0c1.29-2.059,1.119-4.215,0.94-6.295
	c-0.223-2.596-0.957-3.252-3.599-3.189c-5.231,0.123-10.459,0.391-15.688,0.609C455.303,645.96,455.203,646.085,454.946,646.257z"/>
<path fill-rule="evenodd" clip-rule="evenodd" fill="#29A9E0" d="M297.57,615.034c0,11.088,0,21.828,0,32.941
	c-9.551,0-18.906,0-28.008,0c-1.471,1.773-1.78,3.455-1.778,5.244c0.007,8.156,0.01,16.313-0.003,24.469
	c-0.003,1.793,0.302,3.465,1.398,4.77c9.475,0,18.809,0,28.372,0c0,11.035,0,21.994,0,33.352c-2.163,0.025-4.134,0.018-6.102,0.08
	c-7.756,0.25-15.51,0.521-23.265,0.779c-1.003,0.033-2.012,0.098-3.01,0.029c-8.603-0.594-10.532-3.451-12.655-9.475
	c-1.512-4.291-2.024-8.799-2.063-13.25c-0.163-18.945-0.144-37.893-0.009-56.836c0.033-4.598,0.758-9.189,2.186-13.613
	c1.598-4.949,4.835-9.182,12.541-9.307c8.527-0.137,17.061,0,25.591,0.119C292.979,614.368,295.187,614.778,297.57,615.034z"/>
<path fill-rule="evenodd" clip-rule="evenodd" fill="#29A9E0" d="M692.534,606.546c5.968-0.311,11.525-0.598,17.244-0.895
	c0.158,2.006,0.281,3.58,0.429,5.461c0.617-1.309,0.981-2.377,1.583-3.293c0.92-1.398,2.217-2.475,3.945-2.596
	c5.469-0.385,10.945-0.67,16.645-1.008c0,14.455,0,28.58,0,43.031c-6.926,0-13.897,0-21.144,0c-0.425,1.51-0.955,2.771-1.107,4.078
	c-0.202,1.736-0.142,3.508-0.142,5.264c-0.008,23.979-0.005,47.955-0.005,71.932c0,1.232,0,2.465,0,4.08
	c-5.83-0.604-11.358-1.174-16.769-1.734c-0.211-0.164-0.327-0.227-0.404-0.322c-0.074-0.09-0.138-0.207-0.154-0.32
	c-0.054-0.371-0.117-0.744-0.117-1.117C692.534,688.444,692.534,647.78,692.534,606.546z"/>
<path fill-rule="evenodd" clip-rule="evenodd" fill="#29A9E0" d="M360.486,586.433c6.139,0,11.862,0,17.877,0
	c0,9.51,0,18.867,0,28.523c2.854,0,5.432,0,7.935,0c0.68,3.072,0.79,28.666,0.164,33.082c-2.523,0-5.107,0-8.051,0
	c0,1.254,0,2.215,0,3.178c0,8.16-0.002,16.322,0.003,24.484c0.001,1.004-0.005,2.012,0.083,3.01c0.199,2.27,0.976,3.057,3.33,3.119
	c2.992,0.082,5.988,0.02,9.187,0.02c0,10.881,0,21.5,0,32.389c-0.722,0.088-1.542,0.266-2.363,0.271
	c-3.767,0.021-7.534,0.016-11.3-0.016c-11.137-0.094-13.507-5.191-15.356-13.043c-0.597-2.533-0.718-5.193-0.89-7.807
	c-1.219-18.545-0.456-37.113-0.593-55.67c-0.122-16.447-0.025-32.896-0.025-49.346C360.486,588.017,360.486,587.403,360.486,586.433
	z"/>
<path fill-rule="evenodd" clip-rule="evenodd" fill="#29A9E0" d="M394.443,615.173c5.848,0,11.337,0,17.097,0
	c0.102,1.541,0.198,3.002,0.324,4.904c1.693-4.121,4.689-5.283,8.59-5.137c4.49,0.17,8.99,0.039,13.677,0.039
	c0,11.078,0,21.912,0,33.064c-7.107,0-14.087,0-20.92,0c-1.407,2.156-1.507,4.24-1.505,6.387
	c0.022,18.703,0.013,37.408,0.013,56.113c0,1.225,0,2.449,0,3.816c-5.907,0-11.492,0-17.276,0
	C394.443,681.329,394.443,648.386,394.443,615.173z"/>
<path fill-rule="evenodd" clip-rule="evenodd" fill="#29A9E0" d="M246.593,623.376c0,31.459,0,62.564,0,93.949
	c-5.745,0.283-11.41,0.563-17.234,0.85c0-31.727,0-63.174,0-94.799C235.087,623.376,240.675,623.376,246.593,623.376z"/>
<path fill-rule="evenodd" clip-rule="evenodd" fill="#29A9E0" d="M229.34,613.419c0-10.273,0-20.279,0-30.695
	c5.614-0.623,11.233,1.047,17.122,0.418c0,10.451,0,20.529,0,30.992C240.864,613.899,235.299,613.667,229.34,613.419z"/>
<path fill-rule="evenodd" clip-rule="evenodd" fill="#FCFEFF" d="M295.95,233.605c1.884-0.507,3.445-1.369,4.922-1.241
	c4.406,0.381,8.768,1.251,13.167,1.748c12.906,1.458,24.409,6.633,35.077,13.653c12.084,7.953,21.555,18.518,28.99,30.911
	c0.934,1.556,1.915,3.088,2.741,4.699c1.672,3.266,2.585,6.67,2.579,10.434c-0.065,45.652-0.04,91.303-0.054,136.953
	c0,1.43-0.165,2.859-0.313,5.256c-1.401-1.471-2.217-2.18-2.857-3.021c-4.315-5.678-8.768-11.211-13.897-16.209
	c-6.799-6.627-14.517-11.91-22.581-16.85c-7.358-4.508-15.14-7.873-23.268-10.643c-9.77-3.33-19.375-7.176-29.577-9.08
	c-1.992-0.373-2.963-1.494-2.687-3.459c0.251-1.777,0.524-3.607,1.171-5.268c4.413-11.334,7.498-23.023,9.984-34.916
	c1.854-8.863,3.091-17.774,4.11-26.773c1.3-11.465,0.959-22.918,0.604-34.34c-0.3-9.648-1.673-19.295-4.523-28.636
	C298.256,242.616,297.224,238.331,295.95,233.605z"/>
<path fill-rule="evenodd" clip-rule="evenodd" fill="#FCFEFF" d="M478.592,233.579c-0.419,1.884-0.57,3.518-1.145,4.985
	c-2.647,6.762-3.831,13.86-5.211,20.939c-2.56,13.133-1.995,26.387-1.971,39.63c0.016,8.433,1.469,16.681,2.765,24.983
	c1.064,6.819,2.147,13.624,3.941,20.265c2.562,9.479,5.519,18.85,8.316,28.264c0.28,0.941,0.748,1.838,0.933,2.793
	c0.581,3.016,0.013,3.938-3.231,4.898c-6.742,1.994-13.53,3.832-20.26,5.867c-3.595,1.088-7.178,2.281-10.64,3.729
	c-4.553,1.902-8.959,4.15-13.466,6.166c-13.008,5.816-24.052,14.4-33.977,24.445c-3.702,3.746-6.87,8.037-10.107,12.215
	c-0.823,1.061-1.408,1.746-3.076,1.123c-0.088-1.133-0.274-2.414-0.275-3.695c-0.021-43.459-0.025-86.916-0.03-130.376
	c0-5.123-0.32-10.319,2.132-15.063c1.506-2.911,3.208-5.729,4.949-8.51c4.142-6.612,8.947-12.664,14.541-18.164
	c11.088-10.901,24.266-18.098,39.007-22.538C460.028,233.054,469.558,232.518,478.592,233.579z"/>
<path fill-rule="evenodd" clip-rule="evenodd" fill="#FCFEFF" d="M398.736,461.661c-0.471-1.295-1.257-2.326-1.088-3.166
	c2.064-10.209,6.909-19.104,13.178-27.309c10.921-14.291,25.473-24,41.301-31.775c11.323-5.561,23.163-10.082,35.549-12.902
	c2.51-0.57,5.376-0.121,7.604-2.967c-0.855-2.131-1.946-4.471-2.747-6.908c-3.741-11.367-7-22.867-9.311-34.623
	c-1.231-6.266-2.781-12.475-3.786-18.775c-0.753-4.717-0.537-9.592-1.334-14.298c-1.428-8.436-0.466-16.899-0.857-25.337
	c-0.209-4.511,1.598-7.449,5.726-9.438c7.758-3.737,15.96-5.996,24.277-7.93c2.694-0.626,5.463-0.933,7.97-1.349
	c1.64,1.907,1.252,3.517,0.684,5.088c-2.958,8.181-5.633,16.439-6.995,25.063c-0.563,3.563-1.197,7.119-1.606,10.7
	c-0.71,6.212-1.666,12.434-1.792,18.665c-0.16,7.938-0.911,15.928,0.624,23.84c0.219,1.127,0.063,2.326,0.088,3.49
	c0.2,8.92,1.61,17.693,2.835,26.512c1.492,10.746,3.475,21.359,6.229,31.838c1.081,4.113,2.397,8.166,3.567,12.256
	c0.767,2.686,0.104,3.682-2.663,3.9c-4.938,0.393-9.905,0.512-14.817,1.105c-6.185,0.746-12.31,1.984-18.491,2.771
	c-7.012,0.895-13.898,2.273-20.769,3.953c-11.504,2.811-22.599,6.762-33.593,11.078c-9.255,3.635-17.979,8.199-25.932,14.201
	C401.556,460.122,400.369,460.688,398.736,461.661z"/>
<path fill-rule="evenodd" clip-rule="evenodd" fill="#FCFEFF" d="M377.31,459.554c-2.335,1.258-3.585,0.313-5.046-0.652
	c-20.185-13.338-42.765-20.865-66.015-26.457c-9.073-2.182-18.483-3.014-27.768-4.254c-7.17-0.959-14.384-1.598-21.898-2.414
	c-0.667-2.043-0.524-4.242,0.178-6.506c3.354-10.82,5.578-21.912,7.48-33.055c1.3-7.609,1.913-15.338,3.112-22.971
	c1.966-12.504,2.305-25.088,1.791-37.676c-0.349-8.539-1.272-17.045-2.645-25.525c-1.129-6.982-2.359-13.91-4.257-20.709
	c-0.923-3.309-2.22-6.511-3.315-9.772c-1.116-3.32,0.115-5.001,3.338-4.244c7.487,1.757,15.138,2.917,22.316,5.859
	c2.732,1.12,5.639,1.932,8.17,3.396c2.764,1.6,4.729,3.8,4.606,7.612c-0.274,8.49,0.165,17.006-0.176,25.491
	c-0.223,5.57-1.006,11.162-2.062,16.643c-1.703,8.843-3.782,17.616-5.807,26.394c-2.285,9.904-4.825,19.734-8.844,29.127
	c-1.575,3.682-0.452,5.551,3.397,6.299c17.799,3.459,34.127,10.594,49.74,19.631c9.379,5.43,17.947,11.846,25.342,19.76
	C368.004,435.22,374.214,446.474,377.31,459.554z"/>
<path fill-rule="evenodd" clip-rule="evenodd" fill="#FCFEFF" d="M408.792,463.784c11.473-5.686,23.016-10.762,35.083-14.637
	c13.447-4.316,27.096-7.666,41.016-10.07c9.728-1.682,19.412-3.482,29.301-3.939c3.95-0.182,7.896-0.57,11.827-1.016
	c1.403-0.16,2.757-0.77,4.361-1.24c-0.251-1.455-0.347-2.58-0.646-3.648c-3.272-11.664-6.827-23.258-9.785-35.002
	c-1.997-7.93-3.24-16.055-4.682-24.117c-1.536-8.594-2.473-17.25-3.244-25.959c-0.515-5.801-0.473-11.576-0.822-17.354
	c-0.128-2.121-0.649-4.224-0.707-6.342c-0.147-5.472,0.766-10.335,6.805-11.393c2.361-0.414,4.533-1.871,6.818-2.785
	c1.828-0.73,3.652-1.572,5.561-1.985c3.615-0.782,5.105,0.776,4.347,4.322c-2.206,10.303-1.816,20.749-1.647,31.171
	c0.057,3.449,0.477,6.9,0.891,10.332c0.827,6.848,1.648,13.701,2.69,20.52c0.939,6.156,1.992,12.303,3.317,18.385
	c1.708,7.836,3.514,15.664,5.678,23.383c4.112,14.666,8.535,29.248,12.752,43.887c0.484,1.682,0.479,3.504,0.77,5.816
	c-2.229,0-4.042,0.252-5.761-0.045c-6.781-1.168-13.512-2.631-20.301-3.736c-3.899-0.635-7.878-0.76-11.815-1.172
	c-17.08-1.785-34.209-1.074-51.317-0.865c-6.063,0.072-12.115,1.141-18.17,1.77c-3.278,0.342-6.578,0.568-9.824,1.109
	c-7.767,1.291-15.579,2.441-23.226,4.266C414.872,464.2,411.89,464.149,408.792,463.784z"/>
<path fill-rule="evenodd" clip-rule="evenodd" fill="#FCFEFF" d="M365.43,464.069c-1.215,0.418-2.015,1.006-2.655,0.865
	c-6.233-1.361-12.404-3.035-18.665-4.24c-5.639-1.086-11.361-1.746-17.06-2.502c-5.213-0.691-10.441-1.279-15.668-1.867
	c-1.153-0.131-2.329-0.088-3.494-0.088c-14.822,0.002-29.647-0.146-44.466,0.098c-5.398,0.09-10.785,1.082-16.17,1.727
	c-5.551,0.664-11.098,1.365-16.636,2.129c-2.762,0.381-5.497,0.951-8.249,1.412c-1.766,0.295-3.54,0.549-5.343,0.826
	c-1.146-2.025-0.674-3.646-0.136-5.441c4.374-14.586,8.721-29.18,12.913-43.816c1.938-6.762,3.548-13.619,5.221-20.455
	c0.311-1.268,0.193-2.637,0.316-3.955c0.106-1.145-0.001-2.412,0.46-3.404c2.478-5.336,2.245-11.205,3.391-16.795
	c1.423-6.941,1.674-14.066,2.398-21.111c0.872-8.479,0.591-16.904,0.571-25.345c-0.012-4.738-0.911-9.483-1.544-14.208
	c-0.385-2.871,0.832-4.448,3.483-3.607c5.153,1.635,10.255,3.474,15.261,5.515c3.354,1.368,4.851,4.407,4.667,7.871
	c-0.299,5.611-0.608,11.226-0.73,16.843c-0.202,9.25-1.191,18.395-2.909,27.486c-1.492,7.898-2.564,15.877-4.12,23.762
	c-1.586,8.033-3.35,16.043-5.383,23.975c-1.747,6.816-3.974,13.51-6.008,20.252c-0.931,3.086-0.432,3.908,2.629,4.191
	c3.444,0.32,6.884,0.818,10.335,0.928c10.569,0.328,20.917,2.158,31.303,3.979c10.831,1.9,21.592,4.115,32.085,7.293
	c11.754,3.559,23.31,7.787,34.877,11.936C359.319,459.472,362.635,460.759,365.43,464.069z"/>
<path fill-rule="evenodd" clip-rule="evenodd" fill="#FCFEFF" d="M363.623,470.448c14.76-1.314,29.517-1.863,44.363,0.047
	C398.036,481.036,372.328,480.099,363.623,470.448z"/>
<path fill-rule="evenodd" clip-rule="evenodd" fill="#222021" d="M653.277,645.099c1.528-0.182,2.998-0.48,4.471-0.508
	c3.89-0.07,7.782-0.051,11.672-0.014c2.354,0.023,3.064,0.42,3.266,2.654c0.211,2.328-0.038,4.711-0.222,7.059
	c-0.115,1.459-1.003,2.121-2.557,2.088c-4.892-0.104-9.785-0.129-14.677-0.139c-1.531-0.002-2.145-0.744-2.524-2.18
	C651.942,651.167,652.118,648.386,653.277,645.099z"/>
<path fill-rule="evenodd" clip-rule="evenodd" fill="#222021" d="M104.112,668.104c0-4.771-0.023-9.543,0.015-14.314
	c0.01-1.244,0.042-2.529,0.358-3.717c0.54-2.018,1.368-2.6,3.526-2.604c4.394-0.01,8.787,0.117,13.179,0.088
	c1.699-0.012,2.569,0.645,2.75,2.332c0.146,1.357,0.559,2.703,0.566,4.057c0.05,9.291,0.059,18.584,0.006,27.875
	c-0.026,4.543-0.968,5.35-5.569,5.518c-3.62,0.131-7.233,0.453-10.853,0.596c-2.951,0.117-3.887-0.705-3.931-3.633
	c-0.081-5.398-0.023-10.797-0.023-16.197C104.129,668.104,104.12,668.104,104.112,668.104z"/>
<path fill-rule="evenodd" clip-rule="evenodd" fill="#222021" d="M531.322,685.745c-5.641,0-11.01-0.035-16.378,0.021
	c-1.566,0.018-2.199-0.746-2.586-2.121c-0.596-2.123-0.508-4.219,0.64-7.627c2.971,0,6.064,0,9.158,0c2.983,0,5.966,0,9.167,0
	C531.322,679.362,531.322,682.415,531.322,685.745z"/>
<path fill-rule="evenodd" clip-rule="evenodd" fill="#222021" d="M454.946,646.257c0.257-0.172,0.357-0.297,0.461-0.301
	c5.229-0.219,10.457-0.486,15.688-0.609c2.642-0.063,3.376,0.594,3.599,3.189c0.179,2.08,0.349,4.236-0.94,6.295
	c-6.165,0-12.376,0-18.586,0C453.663,651.837,453.7,648.999,454.946,646.257z"/>
</svg>
